<?xml version="1.0" encoding="UTF-8" standalone="no"?>
<!-- Created with Inkscape (http://www.inkscape.org/) -->

<svg
   width="210mm"
   height="297mm"
   viewBox="0 0 210 297"
   version="1.1"
   id="svg1"
   inkscape:version="1.3.2 (091e20e, 2023-11-25, custom)"
   sodipodi:docname="drawing.svg"
   xmlns:inkscape="http://www.inkscape.org/namespaces/inkscape"
   xmlns:sodipodi="http://sodipodi.sourceforge.net/DTD/sodipodi-0.dtd"
   xmlns="http://www.w3.org/2000/svg"
   xmlns:svg="http://www.w3.org/2000/svg">
  <sodipodi:namedview
     id="namedview1"
     pagecolor="#ffffff"
     bordercolor="#000000"
     borderopacity="0.25"
     inkscape:showpageshadow="2"
     inkscape:pageopacity="0.0"
     inkscape:pagecheckerboard="0"
     inkscape:deskcolor="#d1d1d1"
     inkscape:document-units="mm"
     inkscape:zoom="2.6565235"
     inkscape:cx="398.26487"
     inkscape:cy="247.12749"
     inkscape:window-width="2880"
     inkscape:window-height="1694"
     inkscape:window-x="-11"
     inkscape:window-y="-11"
     inkscape:window-maximized="1"
     inkscape:current-layer="layer1"
     showgrid="false" />
  <defs
     id="defs1">
    <rect
       x="579.20223"
       y="197.5037"
       width="74.529699"
       height="83.579734"
       id="rect12" />
  </defs>
  <g
     inkscape:label="Layer 1"
     inkscape:groupmode="layer"
     id="layer1">
    <rect
       style="fill:#b0b0b0;stroke-width:0.264583;fill-opacity:1"
       id="rect1"
       width="56.059196"
       height="99.300842"
       x="13.240112"
       y="11.83159" />
    <rect
       style="fill:#aeaeae;fill-opacity:1;stroke-width:0.264583"
       id="rect2"
       width="54.228115"
       height="98.314873"
       x="80.144936"
       y="12.113294" />
    <rect
       style="fill:#d65a5a;fill-opacity:1;stroke-width:0.245779"
       id="rect7-4"
       width="50.988514"
       height="23.09977"
       x="81.167252"
       y="13.303123" />
    <text
       xml:space="preserve"
       style="font-size:4.09212px;fill:#0f0404;fill-opacity:1;stroke-width:0.341009"
       x="84.032822"
       y="25.42354"
       id="text8-5"><tspan
         sodipodi:role="line"
         id="tspan8-7"
         style="fill:#0f0404;fill-opacity:1;stroke-width:0.341009"
         x="84.032822"
         y="25.42354">Leikvellir og matvellir</tspan></text>
    <rect
       style="fill:#bcbcbc;stroke-width:0.264583;fill-opacity:1"
       id="rect4"
       width="53.946411"
       height="99.441689"
       x="144.51442"
       y="11.26818" />
    <rect
       style="fill:#d65a5a;fill-opacity:1;stroke-width:0.255497"
       id="rect7-9"
       width="52.537891"
       height="24.226587"
       x="145.16446"
       y="12.007386" />
    <text
       xml:space="preserve"
       style="font-size:4.09212px;fill:#faecec;fill-opacity:1;stroke-width:0.341009"
       x="149.39427"
       y="24.241476"
       id="text8-4"><tspan
         sodipodi:role="line"
         id="tspan8-0"
         style="fill:#faecec;fill-opacity:1;stroke-width:0.341009"
         x="149.39427"
         y="24.241476">Leikvellir og matvellir</tspan></text>
    <rect
       style="fill:#ba2727;fill-opacity:1;stroke-width:0.276851"
       id="rect5"
       width="38.452667"
       height="22.254658"
       x="22.818066"
       y="42.959938" />
    <rect
       style="fill:#ba2727;fill-opacity:1;stroke-width:0.264583"
       id="rect6"
       width="38.311813"
       height="22.677214"
       x="22.818066"
       y="70.707832" />
    <text
       xml:space="preserve"
       style="font-size:6.04713px;fill:#0c0303;fill-opacity:1;stroke-width:0.503926"
       x="37.511482"
       y="49.041767"
       id="text6"
       transform="scale(0.86484752,1.1562732)"><tspan
         sodipodi:role="line"
         id="tspan6"
         style="fill:#0c0303;fill-opacity:1;stroke-width:0.503926"
         x="37.511482"
         y="49.041767">Matvellir</tspan></text>
    <text
       xml:space="preserve"
       style="font-size:5.47211px;fill:#0c0303;fill-opacity:1;stroke-width:0.456009"
       x="29.354649"
       y="83.580437"
       id="text7"><tspan
         sodipodi:role="line"
         id="tspan7"
         style="stroke-width:0.456009"
         x="29.354649"
         y="83.580437">Leikvellir</tspan></text>
    <rect
       style="fill:#d65a5a;fill-opacity:1;stroke-width:0.246093"
       id="rect7"
       width="52.397038"
       height="22.53636"
       x="15.212044"
       y="14.366929" />
    <text
       xml:space="preserve"
       style="font-size:4.09212px;fill:#0f0404;fill-opacity:1;stroke-width:0.341009"
       x="19.348049"
       y="24.92338"
       id="text8"><tspan
         sodipodi:role="line"
         id="tspan8"
         style="fill:#0f0404;fill-opacity:1;stroke-width:0.341009"
         x="19.348049"
         y="24.92338">Leikvellir og matvellir</tspan></text>
    <rect
       style="fill:#e39696;fill-opacity:1;stroke-width:0.231471"
       id="rect8"
       width="48.588463"
       height="12.681264"
       x="82.398567"
       y="41.833122" />
    <rect
       style="fill:#f3d4d4;fill-opacity:1;stroke-width:0.146496"
       id="rect9"
       width="35.269985"
       height="3.110893"
       x="93.65432"
       y="50.165852" />
    <text
       xml:space="preserve"
       style="font-size:3.175px;fill:#2d0c0c;fill-opacity:1;stroke-width:0.264583"
       x="86.905838"
       y="47.185505"
       id="text9"><tspan
         sodipodi:role="line"
         id="tspan9"
         style="fill:#2d0c0c;fill-opacity:1;stroke-width:0.264583"
         x="86.905838"
         y="47.185505">Nálægt</tspan></text>
    <text
       xml:space="preserve"
       style="font-size:3.175px;fill:#2d0c0c;fill-opacity:1;stroke-width:0.264583"
       x="83.759972"
       y="52.236168"
       id="text10"><tspan
         sodipodi:role="line"
         id="tspan10"
         style="stroke-width:0.264583"
         x="83.759972"
         y="52.236168">filtera</tspan></text>
    <rect
       style="fill:#f3d4d4;fill-opacity:1;stroke-width:0.0462822"
       id="rect9-5"
       width="3.2396033"
       height="3.3804536"
       x="83.228485"
       y="44.555542" />
    <rect
       style="fill:#f3d4d4;fill-opacity:1;stroke-width:0.323128"
       id="rect10"
       width="47.889561"
       height="45.750591"
       x="83.312248"
       y="60.231571" />
    <text
       xml:space="preserve"
       style="font-size:12.4148px;fill:#1c0808;fill-opacity:1;stroke-width:1.03457"
       x="236.59383"
       y="31.986835"
       id="text11"
       transform="scale(0.36690888,2.7254723)"><tspan
         sodipodi:role="line"
         id="tspan11"
         style="fill:#1c0808;fill-opacity:1;stroke-width:1.03457"
         x="236.59383"
         y="31.986835">Listin yfirleik velli</tspan></text>
    <rect
       style="fill:#1c0808;fill-opacity:1;stroke-width:0.344547"
       id="rect11"
       width="45.213573"
       height="59.714069"
       x="148.31743"
       y="44.650166" />
    <rect
       style="fill:#f6dcdc;fill-opacity:1;stroke-width:0.392833"
       id="rect3"
       width="28.255182"
       height="26.339373"
       x="162.59964"
       y="49.157436" />
    <text
       xml:space="preserve"
       transform="scale(0.26458333)"
       id="text3"
       style="white-space:pre;shape-inside:url(#rect12);display:inline;fill:#fceaea;fill-opacity:1"><tspan
         x="579.20312"
         y="208.45187"
         id="tspan1">bla 
</tspan><tspan
         x="579.20312"
         y="223.45187"
         id="tspan2">bla
</tspan><tspan
         x="579.20312"
         y="238.45187"
         id="tspan3">bla
</tspan><tspan
         x="579.20312"
         y="253.45187"
         id="tspan4">bla
</tspan><tspan
         x="579.20312"
         y="268.45187"
         id="tspan5">bla             </tspan><tspan
         x="579.20312"
         y="292.03195"
         id="tspan15">b</tspan></text>
    <text
       xml:space="preserve"
       style="font-size:3.175px;fill:#fceaea;fill-opacity:1;stroke-width:0.264583"
       x="161.64688"
       y="42.727364"
       id="text13"><tspan
         sodipodi:role="line"
         id="tspan13"
         style="stroke-width:0.264583"
         x="161.64688"
         y="42.727364">card thingy</tspan></text>
    <path
       style="fill:#9c2828;fill-opacity:1;stroke-width:0.264583"
       d="m 163.24044,49.898389 c 1.22837,1.195174 2.43124,2.41713 3.68511,3.585515 11.68152,10.88505 0.50522,0.528986 7.66902,6.57344 0.23393,0.197385 0.37195,0.490358 0.59758,0.697182 0.17648,0.161772 0.40607,0.254749 0.59759,0.398392 0.41487,0.311152 0.82847,0.629279 1.19517,0.995976 0.34003,0.340032 0.21813,0.426146 0.59758,0.697182 0.12082,0.0863 0.2812,0.108043 0.3984,0.199197 0.22236,0.172948 0.3587,0.448281 0.59758,0.597585 0.0969,0.06054 1.0234,0.574487 1.19517,0.697183 0.8095,0.57821 -0.42984,-0.230643 0.2988,0.497988 0.047,0.04695 0.1362,-0.02101 0.19919,0 0.204,0.068 0.26327,0.385387 0.39839,0.497988 0.13646,0.384802 0.55923,0.220223 0.79678,0.398388 0.0594,0.04454 0.0471,0.146704 0.0996,0.199197 1.11458,1.114579 0.18562,0.104889 0.89638,0.697183 0.50107,0.417565 0.89881,0.975053 1.39436,1.394367 0.11334,0.0959 0.28743,0.100555 0.39839,0.199194 0.1938,0.172265 0.32725,0.402447 0.49799,0.597585 0.33938,0.387866 0.75314,0.710338 1.09558,1.095574 0.14123,0.158882 0.24807,0.347673 0.39838,0.497988 0.0847,0.08464 0.21416,0.114554 0.2988,0.199194 0.18335,0.183351 0.31464,0.414237 0.49799,0.597588 0.4641,0.464101 1.12194,0.83633 1.49396,1.394365 0.13672,0.205089 0.13273,0.298609 0.1992,0.497988 0.0297,0.08908 0.1572,0.115208 0.19919,0.199194 0.0648,0.129519 -0.10366,0.593522 0,0.697185 0.0235,0.02347 0.0761,-0.02347 0.0996,0 0.0235,0.02347 -0.0148,0.0699 0,0.0996 0.17846,0.356923 0.99597,0.728726 0.99597,0.995977"
       id="path13" />
    <path
       style="fill:#bc3030;fill-opacity:1;stroke-width:0.264583"
       d="m 163.53924,74.598593 c 1.85324,-2.045251 3.44617,-4.312685 5.27867,-6.374247 0.43669,-0.491281 0.96659,-0.895299 1.39436,-1.394367 0.18586,-0.216834 0.30501,-0.486659 0.49799,-0.697183 0.17521,-0.19114 0.42171,-0.307456 0.59759,-0.497988 0.93441,0.04721 0.406,-0.775279 0.69718,-1.095573 0.54619,-0.600805 0.9421,-0.779695 1.49396,-1.294768 0.30892,-0.288319 0.59759,-0.597585 0.89638,-0.896379 0.2656,-0.265594 0.55234,-0.511598 0.79678,-0.796779 0.15581,-0.181769 0.22192,-0.435817 0.39839,-0.597586 0.68469,-0.627628 0.69896,-0.320135 1.29477,-0.796782 0.18331,-0.146648 0.31192,-0.354856 0.49799,-0.497988 1.08583,-0.83525 2.26818,-1.383083 3.48591,-1.99195 0.72494,-0.362466 1.31308,-0.951619 1.99196,-1.394367 1.8405,-1.200328 -0.64871,0.69832 1.09557,-0.79678 0.0564,-0.04831 0.15167,-0.04257 0.1992,-0.0996 0.12393,-0.148714 0.19141,-0.336915 0.29879,-0.497985 0.10417,-0.156263 0.29422,-0.242131 0.39839,-0.398391 0.0778,-0.116687 0.0847,-0.383461 0.19919,-0.497988 0.0525,-0.05249 0.13981,-0.05506 0.1992,-0.0996 0.22363,-0.167725 0.52841,-0.486212 0.69718,-0.697185 0.31201,-0.390015 0.34382,-0.755854 0.79678,-1.095574 0.19737,-0.148026 0.44239,-0.121594 0.59759,-0.199194 0.0297,-0.01484 -0.0184,-0.07197 0,-0.0996 0.0569,-0.08534 0.63714,-0.582576 0.69718,-0.597585 0.35164,-0.08791 0.1027,0.197334 0.59759,-0.0996 0.10264,-0.06159 0.0996,-0.232395 0.19919,-0.298794 0.25827,-0.172175 0.78653,-0.597586 1.09558,-0.597586"
       id="path14" />
    <rect
       style="fill:#9c2828;fill-opacity:1;stroke-width:0.264583"
       id="rect14"
       width="38.544266"
       height="18.027164"
       x="151.18913"
       y="81.470825" />
    <text
       xml:space="preserve"
       style="font-size:10.007px;fill:#0b0303;fill-opacity:1;stroke-width:0.833914"
       x="202.99905"
       y="73.423882"
       id="text14"
       transform="scale(0.77314473,1.2934189)"><tspan
         sodipodi:role="line"
         id="tspan14"
         style="fill:#0b0303;fill-opacity:1;stroke-width:0.833914"
         x="202.99905"
         y="73.423882">location</tspan></text>
  </g>
</svg>
